<svg width="1280" height="345" viewBox="0 0 1280 345" fill="none" xmlns="http://www.w3.org/2000/svg">
<path fill-rule="evenodd" clip-rule="evenodd" d="M1110.5 81H987.5H982.143V80.6488C962.308 78.0276 947 61.0514 947 40.5C947 18.1325 965.132 0 987.5 0C997.495 0 1006.64 3.62085 1013.71 9.62242C1019.68 3.6759 1027.91 0 1037 0C1051.93 0 1064.55 9.92043 1068.62 23.5309C1072.03 21.9083 1075.84 21 1079.86 21C1090.69 21 1099.98 27.5849 1103.95 36.9693C1106.02 36.339 1108.22 36 1110.5 36C1122.93 36 1133 46.0736 1133 58.5C1133 70.7114 1123.27 80.6507 1111.14 80.991V81H1110.5Z" fill="white" fill-opacity="0.14"/>
<path fill-rule="evenodd" clip-rule="evenodd" d="M1110.5 81H987.5H982.143V80.6488C962.308 78.0276 947 61.0514 947 40.5C947 18.1325 965.132 0 987.5 0C997.495 0 1006.64 3.62085 1013.71 9.62242C1019.68 3.6759 1027.91 0 1037 0C1051.93 0 1064.55 9.92043 1068.62 23.5309C1072.03 21.9083 1075.84 21 1079.86 21C1090.69 21 1099.98 27.5849 1103.95 36.9693C1106.02 36.339 1108.22 36 1110.5 36C1122.93 36 1133 46.0736 1133 58.5C1133 70.7114 1123.27 80.6507 1111.14 80.991V81H1110.5Z" fill="white" fill-opacity="0.14"/>
<path fill-rule="evenodd" clip-rule="evenodd" d="M91.5 345H-31.5H-36.8571V344.649C-56.6925 342.028 -72 325.051 -72 304.5C-72 282.132 -53.8675 264 -31.5 264C-21.5047 264 -12.3551 267.621 -5.29138 273.622C0.677002 267.676 8.90923 264 18 264C32.9343 264 45.5515 273.92 49.6213 287.531C53.0252 285.908 56.8351 285 60.8571 285C71.6868 285 80.9785 291.585 84.9466 300.969C87.0201 300.339 89.2205 300 91.5 300C103.926 300 114 310.074 114 322.5C114 334.711 104.272 344.651 92.1429 344.991V345H91.5Z" fill="white" fill-opacity="0.14"/>
<path fill-rule="evenodd" clip-rule="evenodd" d="M91.5 345H-31.5H-36.8571V344.649C-56.6925 342.028 -72 325.051 -72 304.5C-72 282.132 -53.8675 264 -31.5 264C-21.5047 264 -12.3551 267.621 -5.29138 273.622C0.677002 267.676 8.90923 264 18 264C32.9343 264 45.5515 273.92 49.6213 287.531C53.0252 285.908 56.8351 285 60.8571 285C71.6868 285 80.9785 291.585 84.9466 300.969C87.0201 300.339 89.2205 300 91.5 300C103.926 300 114 310.074 114 322.5C114 334.711 104.272 344.651 92.1429 344.991V345H91.5Z" fill="white" fill-opacity="0.14"/>
<path fill-rule="evenodd" clip-rule="evenodd" d="M77.5706 211.339C76.1529 211.446 74.718 211.501 73.2685 211.501C46.0583 211.501 24 192.181 24 168.35C24 146.052 43.3093 127.705 68.0813 125.435C72.8084 114.284 85.0662 106.339 99.4429 106.339C104.484 106.339 109.264 107.315 113.551 109.065C122.365 102.182 133.986 98 146.723 98C163.548 98 178.426 105.297 187.457 116.475C195.833 110.131 206.45 106.339 218 106.339C245.062 106.339 267 127.157 267 152.839C267 153.409 266.989 153.978 266.968 154.544C280.797 158.136 290.886 169.351 290.886 182.629C290.886 198.806 275.913 211.92 257.443 211.92C255.162 211.92 252.934 211.72 250.781 211.339H77.5706Z" fill="white" fill-opacity="0.13"/>
<path fill-rule="evenodd" clip-rule="evenodd" d="M1144.91 317.556C1143.83 317.638 1142.73 317.68 1141.63 317.68C1120.85 317.68 1104 302.926 1104 284.726C1104 267.697 1118.75 253.685 1137.66 251.952C1141.27 243.436 1150.64 237.368 1161.62 237.368C1165.47 237.368 1169.12 238.114 1172.39 239.45C1179.12 234.194 1188 231 1197.72 231C1210.57 231 1221.93 236.573 1228.83 245.109C1235.23 240.264 1243.34 237.368 1252.16 237.368C1272.82 237.368 1289.58 253.267 1289.58 272.88C1289.58 273.316 1289.57 273.75 1289.55 274.182C1300.12 276.926 1307.82 285.49 1307.82 295.631C1307.82 307.985 1296.38 318 1282.28 318C1280.54 318 1278.84 317.847 1277.19 317.556H1144.91Z" fill="white" fill-opacity="0.13"/>
<path fill-rule="evenodd" clip-rule="evenodd" d="M1050.55 121.013C1035.81 120.575 1024 108.488 1024 93.6411C1024 78.517 1036.26 66.2565 1051.38 66.2565C1053.63 66.2565 1055.82 66.5271 1057.9 67.0375C1064.1 55.6945 1076.14 48 1089.97 48C1098.98 48 1107.23 51.2644 1113.6 56.6751C1118.98 51.314 1126.4 48 1134.6 48C1148.06 48 1159.44 56.9438 1163.11 69.2144C1166.18 67.7515 1169.61 66.9326 1173.24 66.9326C1183 66.9326 1191.38 72.8693 1194.95 81.3298C1196.82 80.7615 1198.81 80.4559 1200.86 80.4559C1212.07 80.4559 1221.15 89.5378 1221.15 100.741C1221.15 111.702 1212.45 120.633 1201.59 121.013V121.026H1089.97H1051.38H1050.55V121.013Z" fill="#D9D9D9" fill-opacity="0.15"/>
<path fill-rule="evenodd" clip-rule="evenodd" d="M292.709 148.162H101.275V148.068C78.784 146.588 61 127.876 61 105.011C61 84.1001 75.8739 66.6633 95.619 62.7031C95.5541 61.9075 95.5211 61.1029 95.5211 60.2906C95.5211 44.1138 108.635 31 124.812 31C133.405 31 141.134 34.7007 146.492 40.5953C152.951 36.8229 160.466 34.6614 168.486 34.6614C181.232 34.6614 192.704 40.1218 200.688 48.8311C210.32 37.8977 224.426 31 240.143 31C269.175 31 292.709 54.5347 292.709 83.5662C292.709 85.6009 292.594 87.6086 292.369 89.5831C292.482 89.5818 292.596 89.5812 292.709 89.5812C308.886 89.5812 322 102.695 322 118.872C322 135.049 308.886 148.162 292.709 148.162Z" fill="white" fill-opacity="0.23"/>
</svg>
