<svg width="390" height="578" viewBox="0 0 390 578" fill="none" xmlns="http://www.w3.org/2000/svg">
<path fill-rule="evenodd" clip-rule="evenodd" d="M-1.43959 231.247C-2.43486 231.323 -3.44219 231.361 -4.45979 231.361C-23.5585 231.361 -39.041 217.801 -39.041 201.074C-39.041 185.423 -25.488 172.545 -8.10067 170.952C-4.78277 163.125 3.82093 157.548 13.9118 157.548C17.4501 157.548 20.8055 158.234 23.8143 159.462C30.0005 154.631 38.1577 151.696 47.0977 151.696C58.9064 151.696 69.3493 156.818 75.6882 164.663C81.5673 160.21 89.0192 157.548 97.1262 157.548C116.121 157.548 131.519 172.161 131.519 190.186C131.519 190.587 131.511 190.986 131.496 191.383C141.203 193.905 148.284 201.776 148.284 211.096C148.284 222.451 137.775 231.655 124.811 231.655C123.21 231.655 121.646 231.515 120.135 231.247H-1.43959Z" fill="white" fill-opacity="0.13"/>
<path fill-rule="evenodd" clip-rule="evenodd" d="M358.62 38.9548C357.19 39.2935 355.687 39.4742 354.135 39.4742C344.672 39.4742 337 32.7551 337 24.4667C337 16.712 343.716 10.331 352.331 9.54142C353.975 5.66336 358.238 2.90006 363.238 2.90006C364.991 2.90006 366.654 3.23981 368.145 3.84824C371.21 1.45462 375.252 0 379.682 0C385.533 0 390.707 2.5379 393.848 6.42543C396.761 4.219 400.454 2.90006 404.471 2.90006C413.882 2.90006 421.512 10.1406 421.512 19.0722C421.512 19.2707 421.508 19.4684 421.501 19.6652C426.311 20.9145 429.819 24.8149 429.819 29.4329C429.819 35.059 424.612 39.6198 418.188 39.6198C416.729 39.6198 415.333 39.3845 414.046 38.9548H358.62Z" fill="white" fill-opacity="0.13"/>
<path fill-rule="evenodd" clip-rule="evenodd" d="M295.555 323.013C280.815 322.575 269 310.488 269 295.641C269 280.517 281.261 268.256 296.385 268.256C298.632 268.256 300.815 268.527 302.905 269.037C309.1 257.694 321.137 250 334.972 250C343.983 250 352.232 253.264 358.601 258.675C363.981 253.314 371.403 250 379.599 250C393.063 250 404.438 258.944 408.107 271.214C411.176 269.751 414.611 268.933 418.237 268.933C428.001 268.933 436.377 274.869 439.955 283.33C441.824 282.762 443.808 282.456 445.863 282.456C457.066 282.456 466.148 291.538 466.148 302.741C466.148 313.702 457.454 322.633 446.585 323.013V323.026H334.972H296.385H295.555V323.013Z" fill="#D9D9D9" fill-opacity="0.18"/>
<path fill-rule="evenodd" clip-rule="evenodd" d="M296.268 577.169C280.482 576.13 268 562.997 268 546.948C268 532.271 278.44 520.032 292.299 517.252C292.253 516.694 292.23 516.129 292.23 515.559C292.23 504.205 301.435 495 312.789 495C318.821 495 324.246 497.597 328.006 501.735C332.54 499.087 337.815 497.57 343.444 497.57C352.39 497.57 360.442 501.403 366.046 507.516C372.807 499.841 382.708 495 393.739 495C414.116 495 430.635 511.519 430.635 531.896C430.635 533.324 430.554 534.733 430.396 536.119C430.476 536.118 430.555 536.118 430.635 536.118C441.99 536.118 451.194 545.322 451.194 556.677C451.194 568.031 441.99 577.235 430.635 577.235L296.268 577.235V577.169Z" fill="white" fill-opacity="0.23"/>
<path fill-rule="evenodd" clip-rule="evenodd" d="M-44.4452 460.013C-59.1854 459.575 -71 447.488 -71 432.641C-71 417.517 -58.7395 405.256 -43.6153 405.256C-41.3684 405.256 -39.1847 405.527 -37.095 406.037C-30.9004 394.694 -18.8627 387 -5.02782 387C3.98344 387 12.2323 390.264 18.6006 395.675C23.9815 390.314 31.4032 387 39.599 387C53.0631 387 64.4382 395.944 68.1074 408.214C71.1761 406.751 74.6109 405.933 78.237 405.933C88.0005 405.933 96.3775 411.869 99.9549 420.33C101.824 419.762 103.808 419.456 105.863 419.456C117.066 419.456 126.148 428.538 126.148 439.741C126.148 450.702 117.454 459.633 106.585 460.013V460.026H-5.02782H-43.6153H-44.4452V460.013Z" fill="#D9D9D9" fill-opacity="0.18"/>
</svg>
