<svg width="267" height="114" viewBox="0 0 267 114" fill="none" xmlns="http://www.w3.org/2000/svg">
<path fill-rule="evenodd" clip-rule="evenodd" d="M53.5714 113.339C52.1535 113.446 50.7183 113.501 49.2685 113.501C22.0583 113.501 0 94.1814 0 70.3496C0 48.0522 19.3093 29.7048 44.0813 27.4346C48.8084 16.284 61.0662 8.33862 75.4429 8.33862C80.4839 8.33862 85.2645 9.31549 89.5512 11.0649C98.3648 4.18248 109.986 0 122.723 0C139.548 0 154.426 7.29733 163.457 18.4753C171.833 12.131 182.45 8.33862 194 8.33862C221.062 8.33862 243 29.1574 243 54.8386C243 55.4094 242.989 55.9779 242.968 56.5437C256.797 60.136 266.886 71.3508 266.886 84.6292C266.886 100.806 251.913 113.92 233.443 113.92C231.162 113.92 228.934 113.72 226.781 113.339H53.5714Z" fill="white" fill-opacity="0.13"/>
</svg>
