<svg width="261" height="118" viewBox="0 0 261 118" fill="none" xmlns="http://www.w3.org/2000/svg">
<path fill-rule="evenodd" clip-rule="evenodd" d="M40.2746 117.068V117.162H43.1513L231.709 117.162C247.886 117.162 261 104.048 261 87.8717C261 71.695 247.886 58.5811 231.709 58.5811C231.596 58.5811 231.482 58.5818 231.369 58.5831C231.594 56.6086 231.709 54.6009 231.709 52.5661C231.709 23.5347 208.175 0 179.143 0C163.426 0 149.32 6.89773 139.688 17.8311C131.704 9.1218 120.232 3.66135 107.486 3.66135C99.4662 3.66135 91.9513 5.82293 85.4921 9.59525C80.1341 3.70065 72.405 0 63.8116 0C47.6349 0 34.5211 13.1138 34.5211 29.2906C34.5211 30.1029 34.5541 30.9075 34.619 31.7031C14.8739 35.6633 0 53.1002 0 74.011C0 96.8762 17.784 115.588 40.2746 117.068Z" fill="white" fill-opacity="0.23"/>
</svg>
