<svg width="35" height="34" viewBox="0 0 35 34" fill="none" xmlns="http://www.w3.org/2000/svg">
<g clip-path="url(#clip0_882_1093)">
<path d="M34.6076 17.099C34.6076 7.81627 27.0693 0.291016 17.7706 0.291016C8.47186 0.291016 0.933594 7.81627 0.933594 17.099C0.933594 24.9812 6.36993 31.5955 13.7035 33.4121V22.2355H10.2317V17.099H13.7035V14.8857C13.7035 9.16494 16.297 6.51332 21.9233 6.51332C22.9901 6.51332 24.8307 6.72241 25.5836 6.93083V11.5866C25.1863 11.5449 24.496 11.5241 23.6386 11.5241C20.878 11.5241 19.8112 12.5682 19.8112 15.2824V17.099H25.3109L24.366 22.2355H19.8112V33.7839C28.1483 32.7788 34.6083 25.6925 34.6083 17.099H34.6076Z" fill="black"/>
<path d="M24.3653 22.2353L25.3102 17.0988H19.8105V15.2822C19.8105 12.5681 20.8773 11.524 23.6379 11.524C24.4953 11.524 25.1856 11.5448 25.5829 11.5865V6.93069C24.83 6.7216 22.9894 6.51318 21.9226 6.51318C16.2963 6.51318 13.7027 9.16481 13.7027 14.8856V17.0988H10.231V22.2353H13.7027V33.412C15.0053 33.7347 16.3677 33.9068 17.7699 33.9068C18.4602 33.9068 19.1411 33.8644 19.8099 33.7837V22.2353H24.3646H24.3653Z" fill="white"/>
</g>
<defs>
<clipPath id="clip0_882_1093">
<rect width="33.674" height="33.6159" fill="white" transform="translate(0.933594 0.291016)"/>
</clipPath>
</defs>
</svg>
