<svg width="35" height="34" viewBox="0 0 35 34" fill="none" xmlns="http://www.w3.org/2000/svg">
<g clip-path="url(#clip0_882_1094)">
<path d="M17.5909 3.31776C22.0896 3.31776 22.6223 3.33746 24.3915 3.41624C26.0357 3.48847 26.9236 3.76422 27.5155 3.99402C28.2982 4.29604 28.8638 4.66371 29.4492 5.24805C30.0411 5.83895 30.4028 6.39703 30.7054 7.17834C30.9356 7.76924 31.2118 8.66216 31.2841 10.297C31.3631 12.0697 31.3828 12.6015 31.3828 17.0858C31.3828 21.5767 31.3631 22.1085 31.2841 23.8747C31.2118 25.5161 30.9356 26.4024 30.7054 26.9933C30.4028 27.7746 30.0345 28.3393 29.4492 28.9236C28.8572 29.5145 28.2982 29.8756 27.5155 30.1777C26.9236 30.4075 26.0292 30.6832 24.3915 30.7554C22.6157 30.8342 22.083 30.8539 17.5909 30.8539C13.0923 30.8539 12.5595 30.8342 10.7903 30.7554C9.1461 30.6832 8.25821 30.4075 7.66629 30.1777C6.88363 29.8756 6.31801 29.508 5.73266 28.9236C5.14074 28.3327 4.779 27.7746 4.47646 26.9933C4.24627 26.4024 3.97004 25.5095 3.89769 23.8747C3.81877 22.102 3.79904 21.5701 3.79904 17.0858C3.79904 12.595 3.81877 12.0631 3.89769 10.297C3.97004 8.6556 4.24627 7.76924 4.47646 7.17834C4.779 6.39703 5.14731 5.83239 5.73266 5.24805C6.32459 4.65714 6.88363 4.29604 7.66629 3.99402C8.25821 3.76422 9.15268 3.48847 10.7903 3.41624C12.5595 3.33746 13.0923 3.31776 17.5909 3.31776ZM17.5909 0.291016C13.0199 0.291016 12.4477 0.310712 10.6522 0.3895C8.86329 0.468287 7.6334 0.757174 6.56794 1.17081C5.45643 1.60414 4.51593 2.17534 3.582 3.11423C2.64149 4.04654 2.0693 4.98542 1.63522 6.08845C1.22087 7.15864 0.931484 8.37984 0.852561 10.1657C0.773637 11.9647 0.753906 12.5359 0.753906 17.099C0.753906 21.6621 0.773637 22.2333 0.852561 24.0257C0.931484 25.8115 1.22087 27.0393 1.63522 28.1029C2.0693 29.2125 2.64149 30.1514 3.582 31.0837C4.51593 32.016 5.45643 32.5938 6.56136 33.0206C7.6334 33.4342 8.85672 33.7231 10.6456 33.8019C12.4412 33.8807 13.0134 33.9004 17.5843 33.9004C22.1553 33.9004 22.7275 33.8807 24.523 33.8019C26.312 33.7231 27.5418 33.4342 28.6073 33.0206C29.7122 32.5938 30.6527 32.016 31.5867 31.0837C32.5206 30.1514 33.0994 29.2125 33.5269 28.1095C33.9412 27.0393 34.2306 25.8181 34.3095 24.0322C34.3885 22.2398 34.4082 21.6686 34.4082 17.1055C34.4082 12.5424 34.3885 11.9712 34.3095 10.1788C34.2306 8.39297 33.9412 7.16521 33.5269 6.10158C33.1125 4.98542 32.5403 4.04654 31.5998 3.11423C30.6659 2.18191 29.7254 1.60414 28.6205 1.17737C27.5484 0.763739 26.3251 0.474853 24.5362 0.396065C22.7341 0.310712 22.1619 0.291016 17.5909 0.291016Z" fill="black"/>
<path d="M17.5911 8.46533C12.8162 8.46533 8.94238 12.3325 8.94238 17.0991C8.94238 21.8657 12.8162 25.7329 17.5911 25.7329C22.3659 25.7329 26.2398 21.8657 26.2398 17.0991C26.2398 12.3325 22.3659 8.46533 17.5911 8.46533ZM17.5911 22.6996C14.4933 22.6996 11.9809 20.1915 11.9809 17.0991C11.9809 14.0067 14.4933 11.4986 17.5911 11.4986C20.6888 11.4986 23.2012 14.0067 23.2012 17.0991C23.2012 20.1915 20.6888 22.6996 17.5911 22.6996Z" fill="black"/>
<path d="M28.6007 8.12404C28.6007 9.2402 27.6931 10.1397 26.5816 10.1397C25.4635 10.1397 24.5625 9.23363 24.5625 8.12404C24.5625 7.00789 25.4701 6.1084 26.5816 6.1084C27.6931 6.1084 28.6007 7.01445 28.6007 8.12404Z" fill="black"/>
</g>
<defs>
<clipPath id="clip0_882_1094">
<rect width="33.674" height="33.6159" fill="white" transform="translate(0.753906 0.291016)"/>
</clipPath>
</defs>
</svg>
