<svg width="35" height="34" viewBox="0 0 35 34" fill="none" xmlns="http://www.w3.org/2000/svg">
<g clip-path="url(#clip0_882_1096)">
<path d="M31.5852 0.291016H2.88277C2.2235 0.291016 1.59122 0.55246 1.12505 1.01783C0.658869 1.48321 0.396973 2.11439 0.396973 2.77252V31.4254C0.396973 32.0835 0.658869 32.7147 1.12505 33.1801C1.59122 33.6455 2.2235 33.9069 2.88277 33.9069H31.5852C32.2445 33.9069 32.8767 33.6455 33.3429 33.1801C33.8091 32.7147 34.071 32.0835 34.071 31.4254V2.77252C34.071 2.11439 33.8091 1.48321 33.3429 1.01783C32.8767 0.55246 32.2445 0.291016 31.5852 0.291016ZM10.4337 28.9276H5.37091V12.8736H10.4337V28.9276ZM7.8988 10.6489C7.32451 10.6457 6.76405 10.4727 6.28815 10.1518C5.81225 9.8309 5.44224 9.37646 5.22481 8.84583C5.00739 8.3152 4.95229 7.73216 5.06648 7.17031C5.18067 6.60845 5.45902 6.09295 5.86641 5.68886C6.2738 5.28478 6.79197 5.01022 7.35552 4.89984C7.91907 4.78946 8.50275 4.8482 9.03289 5.06866C9.56303 5.28911 10.0159 5.66139 10.3343 6.13852C10.6527 6.61565 10.8223 7.17624 10.8219 7.74954C10.8273 8.13337 10.7553 8.51436 10.61 8.8698C10.4648 9.22524 10.2494 9.54785 9.97663 9.81842C9.70385 10.089 9.3793 10.3019 9.02232 10.4446C8.66535 10.5873 8.28324 10.6568 7.8988 10.6489ZM29.0947 28.9416H24.0343V20.1711C24.0343 17.5845 22.9328 16.7862 21.511 16.7862C20.0098 16.7862 18.5365 17.916 18.5365 20.2365V28.9416H13.4737V12.8853H18.3424V15.11H18.4079C18.8966 14.1226 20.6084 12.4348 23.2205 12.4348C26.0453 12.4348 29.0971 14.1086 29.0971 19.0109L29.0947 28.9416Z" fill="black"/>
</g>
<defs>
<clipPath id="clip0_882_1096">
<rect width="33.674" height="33.6159" fill="white" transform="translate(0.396973 0.291016)"/>
</clipPath>
</defs>
</svg>
