<svg width="32" height="24" viewBox="0 0 32 24" fill="none" xmlns="http://www.w3.org/2000/svg">
<path fill-rule="evenodd" clip-rule="evenodd" d="M0.120666 5.94529C0.111816 6.54277 0.111816 7.2036 0.111816 7.93662V15.8312C0.111816 19.5528 0.111816 21.4136 1.26996 22.5697C2.4281 23.7259 4.29209 23.7259 8.02009 23.7259H23.8366C27.5646 23.7259 29.4286 23.7259 30.5868 22.5697C31.7449 21.4136 31.7449 19.5528 31.7449 15.8312V7.93662C31.7449 7.2036 31.7449 6.54277 31.7361 5.94529C31.7 3.50937 31.5168 2.12655 30.5868 1.19813C29.4286 0.0419922 27.5646 0.0419922 23.8366 0.0419922H8.02009C4.29209 0.0419922 2.4281 0.0419922 1.26996 1.19813C0.33993 2.12656 0.156747 3.50937 0.120666 5.94529ZM27.7775 5.73665C27.7637 5.04422 27.7362 4.53892 27.6813 4.13131C27.68 4.12153 27.6786 4.11195 27.6773 4.10257C27.6679 4.10125 27.6583 4.09994 27.6485 4.09863C26.8965 3.99769 25.8124 3.98931 23.8366 3.98931H8.02009C6.04431 3.98931 4.96025 3.99769 4.20821 4.09863C4.19841 4.09994 4.18881 4.10125 4.17941 4.10257C4.1781 4.11195 4.17678 4.12153 4.17546 4.13131C4.12057 4.53892 4.093 5.04422 4.07927 5.73665L15.0442 11.2097C15.6008 11.4875 16.2559 11.4875 16.8125 11.2097L27.7775 5.73665ZM4.06595 10.1432V15.8312C4.06595 17.8036 4.07435 18.8858 4.17546 19.6366C4.17678 19.6463 4.1781 19.6559 4.17941 19.6653C4.18881 19.6666 4.19841 19.6679 4.20821 19.6692C4.96025 19.7702 6.04431 19.7786 8.02009 19.7786H23.8366C25.8124 19.7786 26.8965 19.7702 27.6485 19.6692C27.6583 19.6679 27.6679 19.6666 27.6773 19.6653C27.6786 19.6559 27.68 19.6463 27.6813 19.6366C27.7824 18.8858 27.7908 17.8036 27.7908 15.8312V10.1432L18.5809 14.7402C16.9111 15.5737 14.9457 15.5737 13.2759 14.7402L4.06595 10.1432ZM27.5994 20.0512C27.5994 20.0511 27.5998 20.0499 27.6007 20.0476L27.5994 20.0512ZM4.25735 20.0512C4.25733 20.0512 4.25688 20.0501 4.25603 20.0476L4.25735 20.0512ZM3.79287 4.18037C3.79283 4.18036 3.79399 4.1799 3.79645 4.17905L3.79287 4.18037ZM28.0639 4.18037C28.0638 4.18039 28.0626 4.17996 28.0603 4.17905L28.0639 4.18037ZM27.6007 3.72028C27.5998 3.71795 27.5994 3.71672 27.5994 3.71669L27.6007 3.72028Z" fill="black"/>
</svg>
