<svg width="103" height="116" viewBox="0 0 103 116" fill="none" xmlns="http://www.w3.org/2000/svg">
<g filter="url(#filter0_d_75_802)">
<path fill-rule="evenodd" clip-rule="evenodd" d="M96.0843 87.1866C72.5109 92.8834 47.9303 80.0384 39.4992 56.7017C32.996 38.7013 37.872 19.3606 50.433 6.55318C48.7219 6.9667 47.0161 7.47791 45.3221 8.08991C20.2914 17.133 7.33087 44.7553 16.374 69.786C25.417 94.8167 53.0393 107.777 78.07 98.7341C85.1003 96.1942 91.1784 92.1887 96.0843 87.1866Z" fill="url(#paint0_linear_75_802)"/>
</g>
<path d="M54.1737 83.7193C54.7104 84.2459 55.1633 84.7356 55.5167 85.4003C55.6696 85.688 56.0644 85.8201 55.9167 85.3478C55.6279 84.425 54.7497 84.1247 54.011 83.7781" stroke="#858585" stroke-width="3" stroke-linecap="round"/>
<path d="M63.56 97.1183C63.4766 96.4449 63.816 95.8017 63.799 95.1212C63.7876 94.6632 63.3889 93.6565 64.0844 94.4969C64.3929 94.8697 65.0982 95.6336 65.0744 96.1625C65.0388 96.9522 63.9285 96.7033 63.5253 96.4564C63.4637 96.4187 64.1862 96.4466 64.3638 96.317C64.6912 96.0781 64.752 95.6319 64.8332 95.2686C64.9233 94.8658 64.8274 93.762 64.3504 93.706" stroke="#858585" stroke-width="3" stroke-linecap="round"/>
<path d="M29.9067 58.8228C29.7377 58.4654 28.4897 57.1711 28.7797 57.5134C29.0334 57.8128 29.2739 58.4467 29.6132 58.6326C30.2978 59.0076 30.5972 58.6766 30.1891 58.0771C29.9713 57.7572 29.6164 57.1437 29.1698 57.0659C28.5591 56.9595 29.8592 57.9234 29.997 58.0545" stroke="#858585" stroke-width="3" stroke-linecap="round"/>
<path d="M18.1584 44.1793C18.4721 45.0475 19.4028 44.3869 19.0402 44.1877C18.4911 43.886 18.1172 45.4594 18.9719 43.8854" stroke="#858585" stroke-width="3" stroke-linecap="round"/>
<path d="M18.8701 67.8993C18.3417 64.5107 19.8128 63.3112 19.1115 59.896C18.6133 57.4703 17.6092 56.2185 16.9081 53.7974C15.5283 49.0319 14.9496 48.3763 15.0952 41.6843C16.2562 39.222 17.0905 40.1122 17.3625 40.8652C17.3625 40.8652 15.5329 45.5021 17.2169 47.5571C18.7613 49.4417 19.71 47.3579 20.8698 46.2374C22.6458 44.5217 20.9486 39.055 23.2826 38.7263C24.4579 38.5608 25.696 38.7056 26.6179 40.075C26.7297 41.5667 26.8719 45.1925 26.5468 47.7614C26.1405 50.9725 25.1803 51.2686 25.8602 54.1381C26.1373 55.3079 26.921 57.0745 26.921 57.0745C27.909 59.8091 27.8479 61.9511 29.4508 64.0767C32.7604 68.4656 30.6084 54.9925 33.9749 54.5261C35.5082 54.3137 36.6893 53.9739 38.2735 55.7821C40.5275 58.355 39.0419 61.6028 40.1521 65.3178C40.8211 67.5565 41.9373 69.8651 42.1922 70.9647C42.1922 70.9647 44.1695 74.8139 44.4771 77.2893C44.9012 80.7018 43.2313 86.0597 42.4493 83.8952C41.6673 81.7307 42.3312 80.4693 39.4387 79.1096C36.5462 77.7498 41.4756 87.822 42.0518 90.6781C42.628 93.5343 42.7798 94.1015 42.1351 95.2445C40.9499 97.3454 37.0765 88.2833 37.0765 88.2833C36.6252 86.4035 34.9135 85.7665 34.0099 86.9441C33.1063 88.1218 30.7126 87.3843 28.496 85.8719C25.8805 84.0872 24.4831 81.6808 22.5423 78.0638C20.5918 74.4288 19.4956 71.9109 18.8701 67.8993Z" fill="#777777"/>
<path d="M26.5029 55.0725C25.7584 54.633 26.236 53.6924 26.3127 52.8187C26.3917 51.9185 26.8405 50.969 26.9185 50.6091C26.9965 50.2491 27.28 49.0186 27.7902 46.9763C27.7902 46.9763 28.173 45.0131 29.6177 41.671C30.8153 40.8402 31.4748 42.4931 31.4748 42.4931C31.4748 42.4931 31.4884 46.4419 33.2243 47.3355C33.8378 47.6514 34.3232 47.3711 34.9224 47.7174C35.5903 48.1035 36.0972 48.4528 36.2485 49.229C36.3583 49.7924 35.1786 52.7448 32.3964 52.9432C30.9827 53.0441 31.3793 48.6072 31.018 49.128C30.6568 49.6487 29.6995 50.102 29.4866 51.672C29.2738 53.2419 28.8489 54.2249 28.2969 54.4243C28.2969 54.4243 27.1676 55.4648 26.5029 55.0725Z" fill="#777777"/>
<path d="M55.9279 90.3043C55.3275 89.7152 54.7854 89.1886 53.9724 88.9042C53.1408 88.6133 52.3196 88.7388 51.4743 88.6063C50.1575 88.3999 49.6344 86.6104 48.7443 85.7976C48.5991 85.6651 47.104 84.3323 46.916 85.1512C46.6624 86.2552 47.0898 87.3945 47.6229 88.336C48.3337 89.5915 47.7365 90.5814 47.1146 91.843C46.7762 92.5296 46.3701 93.0891 46.9231 93.7589C47.3136 94.2319 47.8586 94.685 48.4425 94.8939C49.913 95.4201 51.1925 94.6324 52.5577 94.2639C53.882 93.9064 55.2913 93.9669 56.5038 94.5961C57.1879 94.951 58.4284 95.7403 59.203 95.2582C59.4087 95.1302 60.0165 94.7296 60.0241 94.4393C60.0392 93.8669 59.2854 93.123 58.9531 92.7398C58.293 91.9785 57.6411 91.5274 56.8001 91.0341C56.4593 90.8342 56.0902 90.6524 55.7867 90.4009C55.6347 90.2748 55.5095 90.1698 55.3076 90.1531C54.9519 90.1237 53.7089 89.8812 53.4427 90.1261C53.3379 90.2225 54.6624 91.2382 54.7718 91.3224C56.2417 92.4535 52.8551 90.602 54.6645 91.8402C55.5207 92.426 58.1333 94.1167 57.286 93.5179C56.3781 92.8762 55.4383 92.2791 54.5481 91.612C54.4683 91.5522 54.2654 91.3368 54.3524 91.3856C55.1175 91.815 55.8861 92.2038 56.691 92.5571C56.7384 92.5779 57.9333 93.1745 57.158 92.6997C56.5386 92.3204 55.9236 91.9284 55.3568 91.4727C54.0724 90.4401 55.8523 91.3423 56.3062 91.7218C57.377 92.617 56.361 92.0918 55.8273 91.6739C55.5952 91.4923 55.2962 91.3018 55.1093 91.0672C54.9217 90.8317 55.6225 91.3857 55.8539 91.5783C56.4214 92.0507 56.9048 92.6087 57.4244 93.1276C57.9732 93.6756 59.5392 95.384 58.9374 94.8949C58.0187 94.1482 57.0972 93.2736 56.3274 92.373C56.318 92.3621 55.7863 91.6866 56.122 91.8856C56.8302 92.3053 57.4818 92.9217 58.0802 93.4794C58.1833 93.5755 58.5267 93.9057 58.6388 94.0751C58.6801 94.1375 58.5005 94.0125 58.444 93.9633C57.942 93.5258 57.462 93.058 56.9925 92.5861C56.811 92.4038 56.511 91.8436 56.4098 92.0801C56.3541 92.2104 57.4602 93.0187 57.5148 93.0664C57.9105 93.4117 59.0779 94.4651 58.6552 94.1535C57.5809 93.3615 56.7301 92.3004 55.7883 91.3647C55.6196 91.1971 55.1019 90.718 55.3072 90.8379C55.8782 91.1713 56.3994 91.5948 56.9249 91.9936C57.3844 92.3422 57.7243 92.7779 58.1764 93.121C58.374 93.271 58.5973 93.3564 58.7435 93.5634C59.2296 94.2516 56.8154 93.2562 56.6587 93.1997C56.0182 92.9688 55.3775 92.7017 54.776 92.3802C54.7302 92.3556 54.6152 92.2609 54.6666 92.2691C54.8537 92.2992 55.076 92.3967 55.2344 92.4763C55.8992 92.8104 56.5806 93.313 57.1992 93.7376C57.5079 93.9496 57.7837 94.2047 58.0946 94.4132C58.8862 94.9439 57.9083 94.4904 57.5554 94.3395C56.2324 93.7736 54.9275 93.1943 53.6349 92.5627C53.3491 92.4231 51.1794 91.7721 52.296 92.1899C52.8652 92.4028 53.4265 92.6218 53.977 92.8803C54.2364 93.0021 54.4086 93.0915 54.6466 93.2166C54.7658 93.2793 54.7195 93.2627 54.5664 93.1538C53.8506 92.6447 53.1634 92.0921 52.5109 91.5041C52.3227 91.3345 51.7619 90.9222 52.0152 90.9282C52.4385 90.9382 52.86 91.029 53.2832 91.0496C53.7759 91.0735 52.9704 90.5928 52.9124 90.5485C52.8021 90.4641 51.9343 89.9277 51.954 89.7533C51.9711 89.6024 53.064 89.8145 53.1428 89.8265C54.1832 89.9849 53.7173 89.7441 53.0624 89.4639C51.9405 88.9841 53.0522 89.4284 53.5551 89.5463C54.6249 89.7969 52.7739 89.4899 52.5576 89.4764C52.038 89.4438 51.3688 89.3188 50.8521 89.4604C50.6046 89.5282 51.4958 90.2327 51.5349 90.2661C52.0683 90.7219 52.5536 90.8639 51.5594 90.826C51.5238 90.8246 50.372 90.8005 50.5612 90.9413C51.0112 91.2761 51.6882 91.4447 52.2 91.6636C53.5416 92.2374 51.4264 91.9066 50.9349 91.9359C50.2004 91.9796 51.4108 92.3272 51.4348 92.3352C52.2803 92.6164 53.1539 92.8028 54.0357 92.9268C54.1035 92.9363 54.1713 92.9483 54.2398 92.9499C54.3565 92.9527 54.0111 92.9017 53.8952 92.8881C52.8725 92.7686 51.8404 92.7163 50.8131 92.6544C50.345 92.6261 48.9415 92.6042 49.409 92.5675C50.0622 92.5162 50.7245 92.542 51.3797 92.4972C52.2067 92.4406 53.5027 92.1909 54.2603 92.7018C55.032 93.2223 55.6785 93.8642 56.3702 94.4747C56.8858 94.9298 57.7087 95.8211 58.4226 95.2812C58.7247 95.0527 59.1518 94.849 59.4937 94.7119C59.5562 94.6869 59.7465 94.4529 59.6795 94.3776C59.4885 94.1626 58.8142 94.0889 58.5716 94.0321C57.7005 93.8283 56.8092 93.7406 55.9337 93.5602C54.3296 93.2299 52.8502 92.9104 51.2128 92.754C49.6759 92.6072 52.5199 92.9737 52.7807 93.025C54.4068 93.3454 53.0243 93.6602 52.1904 93.8214C52.156 93.828 50.4662 93.9586 50.5185 93.8769C50.6023 93.7459 51.7753 93.5021 51.7216 93.4996C51.1868 93.4739 50.6654 93.5831 50.128 93.4887C49.5827 93.3928 49.4955 93.1414 50.057 92.9874C50.6608 92.8218 51.5147 92.9116 50.5089 92.4814C50.0668 92.2924 49.505 92.1462 49.1087 91.8683C49.0302 91.8132 49.2792 91.6652 49.3032 91.5805C49.4643 91.0113 49.3313 90.2979 49.1907 89.7415C49.1832 89.7116 48.8244 88.9178 49.0385 88.913C49.6278 88.8998 50.9021 90.3002 50.5535 89.8249C49.8311 88.8402 49.3714 87.6877 48.6364 86.7004C48.468 86.4742 48.2628 86.1434 48.0019 86.0152C47.3445 85.6922 48.0912 87.321 48.1459 87.4467C48.6497 88.6042 49.5419 89.6111 50.3869 90.5314C50.8013 90.9827 51.2494 91.3968 51.5972 91.9053C51.9598 92.4353 51.6831 92.1586 51.4241 91.8597C50.4345 90.718 49.4702 89.6983 48.7246 88.3792C48.5001 87.9821 48.2411 87.598 48.0338 87.1918C48.0143 87.1537 47.7944 86.5955 47.9543 86.8939C48.6814 88.2508 49.0824 89.7548 49.8386 91.096C50.1912 91.7214 50.8706 92.973 49.5774 92.0402C48.7137 91.4173 48.1294 90.396 47.7804 89.4023C47.6118 88.9222 48.4358 88.9199 48.7036 89.1122C49.1509 89.4334 52.1703 91.5399 50.6129 92.2548C49.948 92.5601 48.9976 92.1837 48.4721 91.7387C48.3774 91.6585 48.5333 91.2655 48.6225 91.3036C48.668 91.323 48.5342 91.3586 48.4847 91.3588C48.1486 91.3604 48.3928 91.0792 48.4947 90.935C48.6873 90.6625 49.5302 89.0299 48.9507 90.1026C48.4933 90.9492 48.0919 91.8285 47.707 92.71C47.6691 92.7969 47.3632 93.3137 47.4216 93.4441C47.4793 93.5729 48.2393 93.701 48.3021 93.7208C49.0626 93.9614 49.8079 94.2447 50.544 94.5513C50.8349 94.6724 50.8335 94.7159 50.5948 94.5159C49.9219 93.9522 49.3728 93.2602 48.7217 92.6731C48.5918 92.5559 48.1715 92.2476 48.3278 92.3263C48.7364 92.5321 49.1812 92.7449 49.5368 93.036C49.9414 93.3672 48.8032 93.2275 48.6092 93.2029C48.343 93.1692 49.0454 93.5167 49.2496 93.6909C49.6793 94.0573 49.672 94.2385 49.1001 94.2405C48.9772 94.2409 47.875 94.1379 47.8715 93.8934C47.8689 93.7045 49.7896 94.4534 48.8859 93.4568C48.6196 93.1631 47.4258 92.6022 48.216 92.6209C48.5866 92.6297 51.1239 92.8128 50.0814 92.1131C50.0764 92.1098 49.6307 91.8646 49.6307 91.849C49.6306 91.7316 49.8651 91.8372 49.9821 91.828C50.3657 91.7979 50.7709 91.7501 51.15 91.6997C51.2306 91.689 52.948 91.5276 52.8759 91.2678C52.7651 90.8683 51.5785 90.3079 51.2643 90.0647C50.2843 89.3065 51.9108 90.3109 51.926 90.3192C53.1425 90.9904 54.3703 91.6441 55.6674 92.1478C56.2896 92.3894 55.9131 92.2031 55.5639 91.9894C54.5459 91.3665 53.5082 90.756 52.5339 90.0656C52.2458 89.8613 52.0498 89.725 52.4838 89.7658C53.1188 89.8256 53.7881 89.9845 54.4263 89.9617C55.0096 89.9409 53.2932 89.6695 52.7145 89.5934C52.5135 89.5669 51.0769 89.3019 50.8961 89.5577C50.8121 89.6766 51.5522 90.2402 51.6374 90.31C51.7478 90.4003 52.0824 90.4828 51.9736 90.575C51.3818 91.0765 50.4658 91.1563 49.8571 91.7032C49.3382 92.1695 47.436 93.0223 47.9377 92.5376C48.4144 92.0772 48.0834 91.0998 47.8966 90.4651C47.7823 90.0768 47.8946 89.5258 47.8991 89.1249C47.9051 88.5872 47.754 88.3602 47.6113 87.8459C47.4608 87.3034 47.2759 86.779 47.139 86.2312C47.0856 86.0177 46.9435 85.7487 46.9559 85.525C46.9726 85.2233 47.1724 86.0917 47.2364 86.387C47.4374 87.3135 47.8237 88.3556 47.7166 89.3179C47.6388 90.017 47.7443 90.8259 47.5528 91.5025C47.4943 91.7093 46.8103 92.7254 47.0606 92.1196C47.3521 91.4139 47.4316 90.9543 47.4881 90.2191C47.5493 89.4236 47.4012 88.8659 47.2782 88.1244C47.1819 87.5441 46.4249 83.8672 48.1848 85.2373C48.7703 85.6931 48.7788 86.8497 48.9074 87.5013C49.1821 88.8932 50.2145 89.638 51.1734 90.6109C52.4068 91.8625 53.3616 92.9956 55.1084 93.4213" stroke="#777777" stroke-width="3" stroke-linecap="round"/>
<path d="M51.2765 90.3696C50.9693 90.0969 49.4414 88.9389 49.5033 88.4767C49.5332 88.2534 51.9594 89.1847 52.1854 89.3456C52.321 89.4422 51.8499 89.3742 51.6858 89.3459C50.8522 89.2025 50.0242 89.0436 49.1841 88.9395C47.8336 88.7721 48.6798 89.166 49.2741 89.613C49.6308 89.8813 49.4447 90.0951 49.8785 90.4352C51.1355 91.4204 52.5105 92.2797 53.9263 93.0155C54.3694 93.2458 54.7085 93.4383 55.0681 93.7821C55.5734 94.2652 55.439 93.8367 55.0869 93.4548C53.8924 92.1594 52.2518 91.1423 50.7785 90.1994C50.3061 89.897 49.9756 89.7096 49.4894 89.4767C49.3908 89.4295 49.2883 89.3908 49.1878 89.3478C48.9831 89.2602 49.0443 89.2877 49.2929 89.3856C51.4703 90.2431 53.7009 90.9447 55.9512 91.5841C56.3545 91.6988 56.7787 91.7526 57.1642 91.9175C57.693 92.1437 56.032 91.713 55.4697 91.5922C54.1649 91.3119 52.8657 90.8633 51.542 90.6829C51.0816 90.6201 52.3474 91.1556 52.782 91.3203C52.8967 91.3637 55.1329 92.1001 54.4302 91.904C53.37 91.608 52.3651 91.2205 51.3543 90.7881" stroke="#777777" stroke-width="3" stroke-linecap="round"/>
<g filter="url(#filter1_d_75_802)">
<path fill-rule="evenodd" clip-rule="evenodd" d="M96.0843 87.1866C72.5109 92.8834 47.9303 80.0384 39.4992 56.7017C32.996 38.7013 37.872 19.3606 50.433 6.55318C48.7219 6.9667 47.0161 7.47791 45.3221 8.08991C20.2914 17.133 7.33087 44.7553 16.374 69.786C25.417 94.8167 53.0393 107.777 78.07 98.7341C85.1003 96.1942 91.1784 92.1887 96.0843 87.1866Z" fill="url(#paint1_linear_75_802)"/>
</g>
<path d="M54.1737 83.7193C54.7104 84.2459 55.1633 84.7356 55.5167 85.4003C55.6696 85.688 56.0644 85.8201 55.9167 85.3478C55.6279 84.425 54.7497 84.1247 54.011 83.7781" stroke="#ADADAD" stroke-width="3" stroke-linecap="round"/>
<path d="M63.56 97.1183C63.4766 96.4449 63.816 95.8017 63.799 95.1212C63.7876 94.6632 63.3889 93.6565 64.0844 94.4969C64.3929 94.8697 65.0982 95.6336 65.0744 96.1625C65.0388 96.9522 63.9285 96.7033 63.5253 96.4564C63.4637 96.4187 64.1862 96.4466 64.3638 96.317C64.6912 96.0781 64.752 95.6319 64.8332 95.2686C64.9233 94.8658 64.8274 93.762 64.3504 93.706" stroke="#ADADAD" stroke-width="3" stroke-linecap="round"/>
<path d="M29.9067 58.8228C29.7377 58.4654 28.4897 57.1711 28.7797 57.5134C29.0334 57.8128 29.2739 58.4467 29.6132 58.6326C30.2978 59.0076 30.5972 58.6766 30.1891 58.0771C29.9713 57.7572 29.6164 57.1437 29.1698 57.0659C28.5591 56.9595 29.8592 57.9234 29.997 58.0545" stroke="#ADADAD" stroke-width="3" stroke-linecap="round"/>
<path d="M18.1584 44.1793C18.4721 45.0475 19.4028 44.3869 19.0402 44.1877C18.4911 43.886 18.1172 45.4594 18.9719 43.8854" stroke="#ADADAD" stroke-width="3" stroke-linecap="round"/>
<path d="M18.8701 67.8993C18.3417 64.5107 19.8128 63.3112 19.1115 59.896C18.6133 57.4703 17.6092 56.2185 16.9081 53.7974C15.5283 49.0319 14.9496 48.3763 15.0952 41.6843C16.2562 39.222 17.0905 40.1122 17.3625 40.8652C17.3625 40.8652 15.5329 45.5021 17.2169 47.5571C18.7613 49.4417 19.71 47.3579 20.8698 46.2374C22.6458 44.5217 20.9486 39.055 23.2826 38.7263C24.4579 38.5608 25.696 38.7056 26.6179 40.075C26.7297 41.5667 26.8719 45.1925 26.5468 47.7614C26.1405 50.9725 25.1803 51.2686 25.8602 54.1381C26.1373 55.3079 26.921 57.0745 26.921 57.0745C27.909 59.8091 27.8479 61.9511 29.4508 64.0767C32.7604 68.4656 30.6084 54.9925 33.9749 54.5261C35.5082 54.3137 36.6893 53.9739 38.2735 55.7821C40.5275 58.355 39.0419 61.6028 40.1521 65.3178C40.8211 67.5565 41.9373 69.8651 42.1922 70.9647C42.1922 70.9647 44.1695 74.8139 44.4771 77.2893C44.9012 80.7018 43.2313 86.0597 42.4493 83.8952C41.6673 81.7307 42.3312 80.4693 39.4387 79.1096C36.5462 77.7498 41.4756 87.822 42.0518 90.6781C42.628 93.5343 42.7798 94.1015 42.1351 95.2445C40.9499 97.3454 37.0765 88.2833 37.0765 88.2833C36.6252 86.4035 34.9135 85.7665 34.0099 86.9441C33.1063 88.1218 30.7126 87.3843 28.496 85.8719C25.8805 84.0872 24.4831 81.6808 22.5423 78.0638C20.5918 74.4288 19.4956 71.9109 18.8701 67.8993Z" fill="#A6A6A6"/>
<path d="M26.5029 55.0725C25.7584 54.633 26.236 53.6924 26.3127 52.8187C26.3917 51.9185 26.8405 50.969 26.9185 50.6091C26.9965 50.2491 27.28 49.0186 27.7902 46.9763C27.7902 46.9763 28.173 45.0131 29.6177 41.671C30.8153 40.8402 31.4748 42.4931 31.4748 42.4931C31.4748 42.4931 31.4884 46.4419 33.2243 47.3355C33.8378 47.6514 34.3232 47.3711 34.9224 47.7174C35.5903 48.1035 36.0972 48.4528 36.2485 49.229C36.3583 49.7924 35.1786 52.7448 32.3964 52.9432C30.9827 53.0441 31.3793 48.6072 31.018 49.128C30.6568 49.6487 29.6995 50.102 29.4866 51.672C29.2738 53.2419 28.8489 54.2249 28.2969 54.4243C28.2969 54.4243 27.1676 55.4648 26.5029 55.0725Z" fill="#ABA9A9"/>
<path d="M55.9279 90.3043C55.3275 89.7152 54.7854 89.1886 53.9724 88.9042C53.1408 88.6133 52.3196 88.7388 51.4743 88.6063C50.1575 88.3999 49.6344 86.6104 48.7443 85.7976C48.5991 85.6651 47.104 84.3323 46.916 85.1512C46.6624 86.2552 47.0898 87.3945 47.6229 88.336C48.3337 89.5915 47.7365 90.5814 47.1146 91.843C46.7762 92.5296 46.3701 93.0891 46.9231 93.7589C47.3136 94.2319 47.8586 94.685 48.4425 94.8939C49.913 95.4201 51.1925 94.6324 52.5577 94.2639C53.882 93.9064 55.2913 93.9669 56.5038 94.5961C57.1879 94.951 58.4284 95.7403 59.203 95.2582C59.4087 95.1302 60.0165 94.7296 60.0241 94.4393C60.0392 93.8669 59.2854 93.123 58.9531 92.7398C58.293 91.9785 57.6411 91.5274 56.8001 91.0341C56.4593 90.8342 56.0902 90.6524 55.7867 90.4009C55.6347 90.2748 55.5095 90.1698 55.3076 90.1531C54.9519 90.1237 53.7089 89.8812 53.4427 90.1261C53.3379 90.2225 54.6624 91.2382 54.7718 91.3224C56.2417 92.4535 52.8551 90.602 54.6645 91.8402C55.5207 92.426 58.1333 94.1167 57.286 93.5179C56.3781 92.8762 55.4383 92.2791 54.5481 91.612C54.4683 91.5522 54.2654 91.3368 54.3524 91.3856C55.1175 91.815 55.8861 92.2038 56.691 92.5571C56.7384 92.5779 57.9333 93.1745 57.158 92.6997C56.5386 92.3204 55.9236 91.9284 55.3568 91.4727C54.0724 90.4401 55.8523 91.3423 56.3062 91.7218C57.377 92.617 56.361 92.0918 55.8273 91.6739C55.5952 91.4923 55.2962 91.3018 55.1093 91.0672C54.9217 90.8317 55.6225 91.3857 55.8539 91.5783C56.4214 92.0507 56.9048 92.6087 57.4244 93.1276C57.9732 93.6756 59.5392 95.384 58.9374 94.8949C58.0187 94.1482 57.0972 93.2736 56.3274 92.373C56.318 92.3621 55.7863 91.6866 56.122 91.8856C56.8302 92.3053 57.4818 92.9217 58.0802 93.4794C58.1833 93.5755 58.5267 93.9057 58.6388 94.0751C58.6801 94.1375 58.5005 94.0125 58.444 93.9633C57.942 93.5258 57.462 93.058 56.9925 92.5861C56.811 92.4038 56.511 91.8436 56.4098 92.0801C56.3541 92.2104 57.4602 93.0187 57.5148 93.0664C57.9105 93.4117 59.0779 94.4651 58.6552 94.1535C57.5809 93.3615 56.7301 92.3004 55.7883 91.3647C55.6196 91.1971 55.1019 90.718 55.3072 90.8379C55.8782 91.1713 56.3994 91.5948 56.9249 91.9936C57.3844 92.3422 57.7243 92.7779 58.1764 93.121C58.374 93.271 58.5973 93.3564 58.7435 93.5634C59.2296 94.2516 56.8154 93.2562 56.6587 93.1997C56.0182 92.9688 55.3775 92.7017 54.776 92.3802C54.7302 92.3556 54.6152 92.2609 54.6666 92.2691C54.8537 92.2992 55.076 92.3967 55.2344 92.4763C55.8992 92.8104 56.5806 93.313 57.1992 93.7376C57.5079 93.9496 57.7837 94.2047 58.0946 94.4132C58.8862 94.9439 57.9083 94.4904 57.5554 94.3395C56.2324 93.7736 54.9275 93.1943 53.6349 92.5627C53.3491 92.4231 51.1794 91.7721 52.296 92.1899C52.8652 92.4028 53.4265 92.6218 53.977 92.8803C54.2364 93.0021 54.4086 93.0915 54.6466 93.2166C54.7658 93.2793 54.7195 93.2627 54.5664 93.1538C53.8506 92.6447 53.1634 92.0921 52.5109 91.5041C52.3227 91.3345 51.7619 90.9222 52.0152 90.9282C52.4385 90.9382 52.86 91.029 53.2832 91.0496C53.7759 91.0735 52.9704 90.5928 52.9124 90.5485C52.8021 90.4641 51.9343 89.9277 51.954 89.7533C51.9711 89.6024 53.064 89.8145 53.1428 89.8265C54.1832 89.9849 53.7173 89.7441 53.0624 89.4639C51.9405 88.9841 53.0522 89.4284 53.5551 89.5463C54.6249 89.7969 52.7739 89.4899 52.5576 89.4764C52.038 89.4438 51.3688 89.3188 50.8521 89.4604C50.6046 89.5282 51.4958 90.2327 51.5349 90.2661C52.0683 90.7219 52.5536 90.8639 51.5594 90.826C51.5238 90.8246 50.372 90.8005 50.5612 90.9413C51.0112 91.2761 51.6882 91.4447 52.2 91.6636C53.5416 92.2374 51.4264 91.9066 50.9349 91.9359C50.2004 91.9796 51.4108 92.3272 51.4348 92.3352C52.2803 92.6164 53.1539 92.8028 54.0357 92.9268C54.1035 92.9363 54.1713 92.9483 54.2398 92.9499C54.3565 92.9527 54.0111 92.9017 53.8952 92.8881C52.8725 92.7686 51.8404 92.7163 50.8131 92.6544C50.345 92.6261 48.9415 92.6042 49.409 92.5675C50.0622 92.5162 50.7245 92.542 51.3797 92.4972C52.2067 92.4406 53.5027 92.1909 54.2603 92.7018C55.032 93.2223 55.6785 93.8642 56.3702 94.4747C56.8858 94.9298 57.7087 95.8211 58.4226 95.2812C58.7247 95.0527 59.1518 94.849 59.4937 94.7119C59.5562 94.6869 59.7465 94.4529 59.6795 94.3776C59.4885 94.1626 58.8142 94.0889 58.5716 94.0321C57.7005 93.8283 56.8092 93.7406 55.9337 93.5602C54.3296 93.2299 52.8502 92.9104 51.2128 92.754C49.6759 92.6072 52.5199 92.9737 52.7807 93.025C54.4068 93.3454 53.0243 93.6602 52.1904 93.8214C52.156 93.828 50.4662 93.9586 50.5185 93.8769C50.6023 93.7459 51.7753 93.5021 51.7216 93.4996C51.1868 93.4739 50.6654 93.5831 50.128 93.4887C49.5827 93.3928 49.4955 93.1414 50.057 92.9874C50.6608 92.8218 51.5147 92.9116 50.5089 92.4814C50.0668 92.2924 49.505 92.1462 49.1087 91.8683C49.0302 91.8132 49.2792 91.6652 49.3032 91.5805C49.4643 91.0113 49.3313 90.2979 49.1907 89.7415C49.1832 89.7116 48.8244 88.9178 49.0385 88.913C49.6278 88.8998 50.9021 90.3002 50.5535 89.8249C49.8311 88.8402 49.3714 87.6877 48.6364 86.7004C48.468 86.4742 48.2628 86.1434 48.0019 86.0152C47.3445 85.6922 48.0912 87.321 48.1459 87.4467C48.6497 88.6042 49.5419 89.6111 50.3869 90.5314C50.8013 90.9827 51.2494 91.3968 51.5972 91.9053C51.9598 92.4353 51.6831 92.1586 51.4241 91.8597C50.4345 90.718 49.4702 89.6983 48.7246 88.3792C48.5001 87.9821 48.2411 87.598 48.0338 87.1918C48.0143 87.1537 47.7944 86.5955 47.9543 86.8939C48.6814 88.2508 49.0824 89.7548 49.8386 91.096C50.1912 91.7214 50.8706 92.973 49.5774 92.0402C48.7137 91.4173 48.1294 90.396 47.7804 89.4023C47.6118 88.9222 48.4358 88.9199 48.7036 89.1122C49.1509 89.4334 52.1703 91.5399 50.6129 92.2548C49.948 92.5601 48.9976 92.1837 48.4721 91.7387C48.3774 91.6585 48.5333 91.2655 48.6225 91.3036C48.668 91.323 48.5342 91.3586 48.4847 91.3588C48.1486 91.3604 48.3928 91.0792 48.4947 90.935C48.6873 90.6625 49.5302 89.0299 48.9507 90.1026C48.4933 90.9492 48.0919 91.8285 47.707 92.71C47.6691 92.7969 47.3632 93.3137 47.4216 93.4441C47.4793 93.5729 48.2393 93.701 48.3021 93.7208C49.0626 93.9614 49.8079 94.2447 50.544 94.5513C50.8349 94.6724 50.8335 94.7159 50.5948 94.5159C49.9219 93.9522 49.3728 93.2602 48.7217 92.6731C48.5918 92.5559 48.1715 92.2476 48.3278 92.3263C48.7364 92.5321 49.1812 92.7449 49.5368 93.036C49.9414 93.3672 48.8032 93.2275 48.6092 93.2029C48.343 93.1692 49.0454 93.5167 49.2496 93.6909C49.6793 94.0573 49.672 94.2385 49.1001 94.2405C48.9772 94.2409 47.875 94.1379 47.8715 93.8934C47.8689 93.7045 49.7896 94.4534 48.8859 93.4568C48.6196 93.1631 47.4258 92.6022 48.216 92.6209C48.5866 92.6297 51.1239 92.8128 50.0814 92.1131C50.0764 92.1098 49.6307 91.8646 49.6307 91.849C49.6306 91.7316 49.8651 91.8372 49.9821 91.828C50.3657 91.7979 50.7709 91.7501 51.15 91.6997C51.2306 91.689 52.948 91.5276 52.8759 91.2678C52.7651 90.8683 51.5785 90.3079 51.2643 90.0647C50.2843 89.3065 51.9108 90.3109 51.926 90.3192C53.1425 90.9904 54.3703 91.6441 55.6674 92.1478C56.2896 92.3894 55.9131 92.2031 55.5639 91.9894C54.5459 91.3665 53.5082 90.756 52.5339 90.0656C52.2458 89.8613 52.0498 89.725 52.4838 89.7658C53.1188 89.8256 53.7881 89.9845 54.4263 89.9617C55.0096 89.9409 53.2932 89.6695 52.7145 89.5934C52.5135 89.5669 51.0769 89.3019 50.8961 89.5577C50.8121 89.6766 51.5522 90.2402 51.6374 90.31C51.7478 90.4003 52.0824 90.4828 51.9736 90.575C51.3818 91.0765 50.4658 91.1563 49.8571 91.7032C49.3382 92.1695 47.436 93.0223 47.9377 92.5376C48.4144 92.0772 48.0834 91.0998 47.8966 90.4651C47.7823 90.0768 47.8946 89.5258 47.8991 89.1249C47.9051 88.5872 47.754 88.3602 47.6113 87.8459C47.4608 87.3034 47.2759 86.779 47.139 86.2312C47.0856 86.0177 46.9435 85.7487 46.9559 85.525C46.9726 85.2233 47.1724 86.0917 47.2364 86.387C47.4374 87.3135 47.8237 88.3556 47.7166 89.3179C47.6388 90.017 47.7443 90.8259 47.5528 91.5025C47.4943 91.7093 46.8103 92.7254 47.0606 92.1196C47.3521 91.4139 47.4316 90.9543 47.4881 90.2191C47.5493 89.4236 47.4012 88.8659 47.2782 88.1244C47.1819 87.5441 46.4249 83.8672 48.1848 85.2373C48.7703 85.6931 48.7788 86.8497 48.9074 87.5013C49.1821 88.8932 50.2145 89.638 51.1734 90.6109C52.4068 91.8625 53.3616 92.9956 55.1084 93.4213" stroke="#ADADAD" stroke-width="3" stroke-linecap="round"/>
<path d="M51.2765 90.3696C50.9693 90.0969 49.4414 88.9389 49.5033 88.4767C49.5332 88.2534 51.9594 89.1847 52.1854 89.3456C52.321 89.4422 51.8499 89.3742 51.6858 89.3459C50.8522 89.2025 50.0242 89.0436 49.1841 88.9395C47.8336 88.7721 48.6798 89.166 49.2741 89.613C49.6308 89.8813 49.4447 90.0951 49.8785 90.4352C51.1355 91.4204 52.5105 92.2797 53.9263 93.0155C54.3694 93.2458 54.7085 93.4383 55.0681 93.7821C55.5734 94.2652 55.439 93.8367 55.0869 93.4548C53.8924 92.1594 52.2518 91.1423 50.7785 90.1994C50.3061 89.897 49.9756 89.7096 49.4894 89.4767C49.3908 89.4295 49.2883 89.3908 49.1878 89.3478C48.9831 89.2602 49.0443 89.2877 49.2929 89.3856C51.4703 90.2431 53.7009 90.9447 55.9512 91.5841C56.3545 91.6988 56.7787 91.7526 57.1642 91.9175C57.693 92.1437 56.032 91.713 55.4697 91.5922C54.1649 91.3119 52.8657 90.8633 51.542 90.6829C51.0816 90.6201 52.3474 91.1556 52.782 91.3203C52.8967 91.3637 55.1329 92.1001 54.4302 91.904C53.37 91.608 52.3651 91.2205 51.3543 90.7881" stroke="#ADADAD" stroke-width="3" stroke-linecap="round"/>
<defs>
<filter id="filter0_d_75_802" x="6.99365" y="0.0532227" width="95.5906" height="108.061" filterUnits="userSpaceOnUse" color-interpolation-filters="sRGB">
<feFlood flood-opacity="0" result="BackgroundImageFix"/>
<feColorMatrix in="SourceAlpha" type="matrix" values="0 0 0 0 0 0 0 0 0 0 0 0 0 0 0 0 0 0 127 0" result="hardAlpha"/>
<feOffset/>
<feGaussianBlur stdDeviation="3.25"/>
<feComposite in2="hardAlpha" operator="out"/>
<feColorMatrix type="matrix" values="0 0 0 0 1 0 0 0 0 0.996666 0 0 0 0 0.996666 0 0 0 1 0"/>
<feBlend mode="normal" in2="BackgroundImageFix" result="effect1_dropShadow_75_802"/>
<feBlend mode="normal" in="SourceGraphic" in2="effect1_dropShadow_75_802" result="shape"/>
</filter>
<filter id="filter1_d_75_802" x="6.99365" y="0.0532227" width="95.5906" height="108.061" filterUnits="userSpaceOnUse" color-interpolation-filters="sRGB">
<feFlood flood-opacity="0" result="BackgroundImageFix"/>
<feColorMatrix in="SourceAlpha" type="matrix" values="0 0 0 0 0 0 0 0 0 0 0 0 0 0 0 0 0 0 127 0" result="hardAlpha"/>
<feOffset/>
<feGaussianBlur stdDeviation="3.25"/>
<feComposite in2="hardAlpha" operator="out"/>
<feColorMatrix type="matrix" values="0 0 0 0 1 0 0 0 0 0.996666 0 0 0 0 0.996666 0 0 0 1 0"/>
<feBlend mode="normal" in2="BackgroundImageFix" result="effect1_dropShadow_75_802"/>
<feBlend mode="normal" in="SourceGraphic" in2="effect1_dropShadow_75_802" result="shape"/>
</filter>
<linearGradient id="paint0_linear_75_802" x1="88.6272" y1="17.4066" x2="22.1753" y2="92.3893" gradientUnits="userSpaceOnUse">
<stop stop-color="#D9D9D9"/>
<stop offset="1" stop-color="#737373"/>
</linearGradient>
<linearGradient id="paint1_linear_75_802" x1="88.6272" y1="17.4066" x2="22.1753" y2="92.3893" gradientUnits="userSpaceOnUse">
<stop stop-color="white"/>
<stop offset="1" stop-color="#A0A0A0"/>
</linearGradient>
</defs>
</svg>
