<svg width="186" height="81" viewBox="0 0 186 81" fill="none" xmlns="http://www.w3.org/2000/svg">
<g id="Cloud5">
<path fill-rule="evenodd" clip-rule="evenodd" d="M163.5 81H40.5H35.1429V80.6488C15.3075 78.0276 0 61.0514 0 40.5C0 18.1325 18.1325 0 40.5 0C50.4953 0 59.6449 3.62085 66.7086 9.62242C72.677 3.6759 80.9092 0 90 0C104.934 0 117.552 9.92043 121.621 23.5309C125.025 21.9083 128.835 21 132.857 21C143.687 21 152.978 27.5849 156.947 36.9693C159.02 36.339 161.22 36 163.5 36C175.926 36 186 46.0736 186 58.5C186 70.7114 176.272 80.6507 164.143 80.991V81H163.5Z" fill="white" fill-opacity="0.14"/>
<path fill-rule="evenodd" clip-rule="evenodd" d="M163.5 81H40.5H35.1429V80.6488C15.3075 78.0276 0 61.0514 0 40.5C0 18.1325 18.1325 0 40.5 0C50.4953 0 59.6449 3.62085 66.7086 9.62242C72.677 3.6759 80.9092 0 90 0C104.934 0 117.552 9.92043 121.621 23.5309C125.025 21.9083 128.835 21 132.857 21C143.687 21 152.978 27.5849 156.947 36.9693C159.02 36.339 161.22 36 163.5 36C175.926 36 186 46.0736 186 58.5C186 70.7114 176.272 80.6507 164.143 80.991V81H163.5Z" fill="white" fill-opacity="0.14"/>
</g>
</svg>
