<svg width="34" height="34" viewBox="0 0 34 34" fill="none" xmlns="http://www.w3.org/2000/svg">
<g id="Social Icons" clip-path="url(#clip0_882_1097)">
<path id="Vector" d="M33.2209 8.95458C33.0305 8.23943 32.6553 7.58673 32.1329 7.06181C31.6104 6.53689 30.959 6.15816 30.2438 5.96353C27.6111 5.25684 17.088 5.25684 17.088 5.25684C17.088 5.25684 6.56485 5.25684 3.93216 5.96353C3.217 6.15816 2.56559 6.53689 2.04312 7.06181C1.52065 7.58673 1.14545 8.23943 0.95507 8.95458C0.250977 11.5942 0.250977 17.0988 0.250977 17.0988C0.250977 17.0988 0.250977 22.6034 0.95507 25.243C1.14545 25.9582 1.52065 26.6109 2.04312 27.1358C2.56559 27.6607 3.217 28.0394 3.93216 28.2341C6.56485 28.9408 17.088 28.9408 17.088 28.9408C17.088 28.9408 27.6111 28.9408 30.2438 28.2341C30.959 28.0394 31.6104 27.6607 32.1329 27.1358C32.6553 26.6109 33.0305 25.9582 33.2209 25.243C33.925 22.6034 33.925 17.0988 33.925 17.0988C33.925 17.0988 33.925 11.5942 33.2209 8.95458Z" fill="black"/>
<path id="Vector_2" d="M13.644 22.0975V12.1006L22.4452 17.099L13.644 22.0975Z" fill="#FEFEFE"/>
</g>
<defs>
<clipPath id="clip0_882_1097">
<rect width="33.674" height="33.6159" fill="white" transform="translate(0.217529 0.291016)"/>
</clipPath>
</defs>
</svg>
